<svg xmlns="http://www.w3.org/2000/svg" viewBox="0 0 200 48" role="img" aria-label="skillgig.id">
  <g>
    <path d="M19 17.5v-3a5 5 0 0 1 10 0v3" fill="none" stroke="#17255A" stroke-width="3.4" stroke-linecap="round"/>
    <path d="M6 23a6 6 0 0 1 6-6H36a6 6 0 0 1 6 6V36a6 6 0 0 1-6 6H12a6 6 0 0 1-6-6ZM24 28m-3.3 0a3.3 3.3 0 1 0 6.6 0a3.3 3.3 0 1 0-6.6 0M19.5 42c0-3.2 2-5 4.5-5 2.5 0 4.5 1.8 4.5 5Z" fill="#17255A" fill-rule="evenodd"/>
    <path d="M34 14.8l1.23 2.78 3.04.25-2.3 2 .7 2.96-2.67-1.6-2.67 1.6.7-2.96-2.3-2 3.04-.25Z" fill="#F4B400"/>
  </g>
  <text x="56" y="32" font-family="Arial, Helvetica, sans-serif" font-size="26" font-weight="800" letter-spacing="-0.5">
    <tspan fill="#17255A">skill</tspan><tspan fill="#F4B400">gig</tspan><tspan fill="#17255A">.id</tspan>
  </text>
</svg>
