<svg xmlns="http://www.w3.org/2000/svg" viewBox="0 0 48 48" role="img" aria-label="SkillGig">
  <rect width="48" height="48" rx="11" fill="#17255A"/>
  <path d="M19 17.5v-3a5 5 0 0 1 10 0v3" fill="none" stroke="#ffffff" stroke-width="3.4" stroke-linecap="round"/>
  <path d="M6 23a6 6 0 0 1 6-6H36a6 6 0 0 1 6 6V36a6 6 0 0 1-6 6H12a6 6 0 0 1-6-6ZM24 28m-3.3 0a3.3 3.3 0 1 0 6.6 0a3.3 3.3 0 1 0-6.6 0M19.5 42c0-3.2 2-5 4.5-5 2.5 0 4.5 1.8 4.5 5Z" fill="#ffffff" fill-rule="evenodd"/>
  <path d="M34 14.8l1.23 2.78 3.04.25-2.3 2 .7 2.96-2.67-1.6-2.67 1.6.7-2.96-2.3-2 3.04-.25Z" fill="#F4B400"/>
</svg>
